<?xml version="1.0" encoding="UTF-8" standalone="no"?>
<!DOCTYPE svg PUBLIC "-//W3C//DTD SVG 1.1//EN" "http://www.w3.org/Graphics/SVG/1.1/DTD/svg11.dtd">
<svg width="100%" height="100%" viewBox="0 0 9000 1800" version="1.1" xmlns="http://www.w3.org/2000/svg" xmlns:xlink="http://www.w3.org/1999/xlink" xml:space="preserve" xmlns:serif="http://www.serif.com/" style="fill-rule:evenodd;clip-rule:evenodd;stroke-linecap:round;stroke-linejoin:round;stroke-miterlimit:1.5;">
    <g id="Artboard1" transform="matrix(1.5,0,0,1,0,0)">
        <rect x="0" y="0" width="6000" height="1800" style="fill:none;"/>
        <clipPath id="_clip1">
            <rect x="0" y="0" width="6000" height="1800"/>
        </clipPath>
        <g clip-path="url(#_clip1)">
            <g>
                <g transform="matrix(0.666667,0,0,1,0,0)">
                    <path d="M820.359,1789.99L820.678,1789.85L988.889,1234.3L988.889,1003.89C932.713,1003.82 876.532,1003.63 820.359,1003.24L820.359,798.173C875.716,797.294 932.26,796.685 988.889,796.3L988.889,565.696L820.678,10.154L820.359,10.015L820.359,0L6000,0L6000,1800L820.359,1800L820.359,1789.99ZM823.3,1799.29C822.88,1799.34 822.46,1799.39 822.04,1799.43C822.32,1799.4 822.6,1799.37 822.88,1799.34L823.3,1799.29ZM827.357,1798.73C826.674,1798.84 825.99,1798.94 825.306,1799.04C825.99,1798.94 826.674,1798.84 827.357,1798.73ZM832.52,1797.78C831.962,1797.9 831.404,1798.01 830.846,1798.12C831.544,1797.98 832.241,1797.84 832.938,1797.69L832.52,1797.78ZM836.511,1796.87C836.296,1796.92 836.08,1796.98 835.863,1797.03L836.281,1796.92L836.511,1796.87ZM838.785,1796.28C838.133,1796.45 837.48,1796.62 836.827,1796.79C837.48,1796.62 838.133,1796.45 838.785,1796.28ZM841.286,1795.57C841.008,1795.65 840.731,1795.74 840.453,1795.81L840.869,1795.69L841.286,1795.57ZM845.644,1794.2C845.301,1794.31 844.959,1794.43 844.616,1794.54C844.959,1794.43 845.301,1794.31 845.644,1794.2ZM850.94,1792.28C850.356,1792.51 849.772,1792.73 849.187,1792.94C849.772,1792.73 850.356,1792.51 850.94,1792.28ZM875.168,1780.16C868.068,1784.5 860.927,1788.19 853.748,1791.16L854.576,1790.81C861.476,1787.9 868.341,1784.34 875.168,1780.16ZM891.477,1768.97C886.575,1772.69 881.651,1776.11 876.707,1779.2C881.378,1776.28 886.031,1773.07 890.665,1769.58L891.477,1768.97ZM905.216,1757.71C903.41,1759.3 901.6,1760.85 899.787,1762.36C901.869,1760.63 903.947,1758.84 906.021,1757L905.216,1757.71ZM916.442,1747.3C915.377,1748.34 914.311,1749.37 913.243,1750.38L912.442,1751.13C913.51,1750.13 914.577,1749.11 915.643,1748.08L916.442,1747.3ZM927.136,1736.39C924.113,1739.61 921.081,1742.72 918.039,1745.73C921.081,1742.72 924.114,1739.61 927.136,1736.39ZM945.124,1715.89C939.48,1722.74 933.798,1729.24 928.081,1735.38C933.798,1729.24 939.479,1722.74 945.124,1715.89ZM955.823,1702.46C953.589,1705.36 951.35,1708.21 949.104,1711C951.349,1708.21 953.589,1705.36 955.823,1702.46ZM958.148,1699.42C957.89,1699.76 957.632,1700.1 957.373,1700.44L958.148,1699.42ZM963.556,1692.19C962.015,1694.28 960.47,1696.35 958.922,1698.4L959.696,1697.37C960.985,1695.66 962.271,1693.93 963.556,1692.19ZM967.254,1687.11C966.12,1688.68 964.985,1690.24 963.848,1691.79C964.985,1690.24 966.12,1688.68 967.254,1687.11ZM971.239,1681.52C970.729,1682.24 970.218,1682.96 969.707,1683.68C970.218,1682.96 970.729,1682.24 971.239,1681.52ZM975.341,1675.64C974.994,1676.14 974.646,1676.64 974.298,1677.14C974.646,1676.64 974.994,1676.14 975.341,1675.64ZM978.871,1670.47C978.17,1671.51 977.468,1672.54 976.765,1673.56C977.468,1672.54 978.17,1671.51 978.871,1670.47ZM979.631,1669.35M991.723,1650.88C990.972,1652.06 990.219,1653.24 989.466,1654.41L990.219,1653.24C990.721,1652.45 991.222,1651.67 991.723,1650.88ZM993.225,1648.51L993.099,1648.71L993.225,1648.51L993.495,1648.08L993.225,1648.51ZM996.221,1643.73C995.883,1644.28 995.544,1644.82 995.205,1645.36C995.544,1644.82 995.883,1644.28 996.221,1643.73ZM1005.63,1628.32C1004.33,1630.48 1003.03,1632.63 1001.74,1634.77C1003.03,1632.63 1004.33,1630.48 1005.63,1628.32ZM1008.12,1624.12L1007.38,1625.37C1007.63,1624.96 1007.87,1624.54 1008.12,1624.12ZM1012.25,1617.07C1011.3,1618.72 1010.33,1620.36 1009.37,1622C1010.33,1620.36 1011.3,1618.72 1012.25,1617.07ZM1017.68,1607.64C1016.7,1609.36 1015.73,1611.06 1014.75,1612.76L1014.01,1614.04C1015.24,1611.92 1016.46,1609.78 1017.68,1607.64ZM1025.69,1593.34C1024.11,1596.2 1022.52,1599.05 1020.93,1601.88C1022.28,1599.48 1023.62,1597.07 1024.96,1594.65L1025.69,1593.34ZM1069.41,1507.76C1061.13,1525.12 1052.69,1542.17 1044.12,1558.77C1053.16,1541.26 1062.06,1523.24 1070.78,1504.89L1069.41,1507.76ZM1086.99,1470.03C1082.96,1478.88 1078.9,1487.68 1074.79,1496.4C1078.44,1488.64 1082.06,1480.82 1085.65,1472.96L1086.99,1470.03ZM1105.38,1428.69C1104.38,1430.97 1103.38,1433.25 1102.39,1435.53C1103.38,1433.25 1104.38,1430.97 1105.38,1428.69ZM1134.3,1360.17C1133.14,1362.98 1131.99,1365.79 1130.83,1368.6C1131.99,1365.79 1133.14,1362.98 1134.3,1360.17ZM1140.36,1345.32L1139.64,1347.08L1140.36,1345.32L1141.08,1343.54L1140.36,1345.32ZM1154.58,1309.92C1150.34,1320.59 1146.03,1331.33 1141.66,1342.12C1146.03,1331.33 1150.34,1320.59 1154.58,1309.92ZM1177.2,1252.24L1175,1257.91C1176.03,1255.26 1177.06,1252.61 1178.08,1249.98L1177.2,1252.24ZM1295.98,1252.2C1294.71,1252.26 1293.44,1252.31 1292.16,1252.36C1293.44,1252.31 1294.71,1252.26 1295.98,1252.2ZM1297.34,1252.13L1296.74,1252.16L1297.34,1252.13L1297.95,1252.09L1297.34,1252.13ZM1267.28,1252.02C1267.83,1252.05 1268.38,1252.08 1268.92,1252.11C1268.16,1252.07 1267.39,1252.03 1266.62,1251.98L1267.28,1252.02ZM1298.64,1252.05L1298.5,1252.06L1298.64,1252.05L1299.29,1252.01L1298.64,1252.05ZM1301.89,1251.83L1301.43,1251.87L1301.89,1251.83L1302.33,1251.8L1301.89,1251.83ZM1260.06,1251.49C1261.16,1251.59 1262.25,1251.67 1263.34,1251.76C1262.03,1251.66 1260.72,1251.55 1259.41,1251.44L1260.06,1251.49ZM1309.04,1251.19L1308.63,1251.24L1309.04,1251.19L1309.06,1251.19L1309.04,1251.19ZM1250.21,1250.48C1251.52,1250.64 1252.84,1250.79 1254.15,1250.93C1252.4,1250.74 1250.64,1250.54 1248.89,1250.32L1250.21,1250.48ZM1319.63,1249.85C1319.33,1249.89 1319.03,1249.94 1318.73,1249.98C1319.03,1249.94 1319.33,1249.89 1319.63,1249.85ZM1230.44,1247.48C1235.7,1248.44 1240.96,1249.28 1246.21,1249.98C1240.52,1249.22 1234.83,1248.3 1229.12,1247.24L1230.44,1247.48ZM1333.01,1247.44C1331.07,1247.85 1329.13,1248.23 1327.19,1248.59L1327.84,1248.46C1329.34,1248.18 1330.85,1247.88 1332.36,1247.57L1333.01,1247.44ZM1340.1,1245.82C1338.64,1246.18 1337.18,1246.52 1335.71,1246.85C1336.96,1246.57 1338.21,1246.28 1339.46,1245.98L1340.1,1245.82ZM1206.63,1242.28C1213.26,1243.95 1219.87,1245.44 1226.48,1246.73L1225.15,1246.47C1218.55,1245.15 1211.93,1243.64 1205.3,1241.94L1206.63,1242.28ZM1343.32,1245.01C1343.08,1245.07 1342.85,1245.13 1342.61,1245.19C1343.06,1245.07 1343.51,1244.96 1343.96,1244.84L1343.32,1245.01ZM1345.32,1244.48C1345.73,1244.37 1346.13,1244.26 1346.54,1244.14L1345.9,1244.32L1345.32,1244.48ZM1351.07,1242.84C1350.63,1242.97 1350.19,1243.1 1349.76,1243.23L1350.4,1243.04C1350.62,1242.98 1350.85,1242.91 1351.07,1242.84ZM1201.32,1240.9C1201.79,1241.03 1202.26,1241.15 1202.73,1241.27C1201.82,1241.03 1200.91,1240.79 1200,1240.55L1201.32,1240.9ZM1354.59,1240.4L1354.42,1241.14L1354.59,1240.4ZM1196.02,1239.45L1196.23,1239.51L1196.02,1239.45L1195.53,1239.31L1196.02,1239.45ZM1190.7,1237.92C1191.59,1238.18 1192.47,1238.44 1193.35,1238.69C1192.47,1238.44 1191.59,1238.18 1190.7,1237.92ZM1183.2,1236.73L1183.71,1235.4L1183.2,1236.73ZM1186.62,1236.03C1186.57,1235.69 1186.53,1235.35 1186.48,1235.01L1186.6,1235.87L1186.62,1236.03ZM1356.63,1230.21C1356.46,1231.18 1356.29,1232.15 1356.1,1233.12L1356.24,1232.39C1356.33,1231.9 1356.42,1231.42 1356.5,1230.94L1356.63,1230.21ZM1358.96,1212.01C1358.87,1213.1 1358.77,1214.19 1358.66,1215.28C1358.77,1214.19 1358.87,1213.1 1358.96,1212.01ZM1359.32,1206.73C1359.26,1207.69 1359.2,1208.65 1359.14,1209.61C1359.2,1208.65 1359.26,1207.69 1359.32,1206.73ZM1359.57,1192.67C1359.57,1192.31 1359.56,1191.94 1359.55,1191.58L1359.57,1192.28L1359.57,1192.67ZM1355.89,1157.93C1355.81,1157.53 1355.73,1157.13 1355.65,1156.73L1355.79,1157.42L1355.89,1157.93ZM1350.8,1149.7C1352.03,1150.19 1353.26,1150.7 1354.48,1151.23L1353.56,1150.84C1352.34,1150.32 1351.11,1149.82 1349.87,1149.33L1350.8,1149.7ZM1341.57,1146.28C1343.97,1147.09 1346.35,1147.95 1348.71,1148.87C1346.35,1147.95 1343.97,1147.09 1341.57,1146.28ZM1220.37,1145.62C1219.55,1145.84 1218.74,1146.06 1217.92,1146.28L1219.14,1145.95L1220.37,1145.62ZM1338.38,1145.23C1339.11,1145.47 1339.85,1145.7 1340.58,1145.95C1339.85,1145.7 1339.11,1145.47 1338.38,1145.23ZM1238.4,1141.46C1236.43,1141.85 1234.45,1142.26 1232.46,1142.7C1234.85,1142.17 1237.23,1141.69 1239.59,1141.24L1238.4,1141.46ZM1252.42,1139.11C1249.09,1139.58 1245.74,1140.11 1242.35,1140.72C1245.35,1140.18 1248.32,1139.7 1251.26,1139.28L1252.42,1139.11ZM1303.73,1138.02C1309.18,1138.6 1314.53,1139.42 1319.79,1140.46C1314.53,1139.42 1309.18,1138.6 1303.73,1138.02ZM1262.68,1137.91C1262.01,1137.98 1261.34,1138.04 1260.66,1138.11C1261.71,1138.01 1262.77,1137.9 1263.81,1137.81L1262.68,1137.91ZM1300.69,1137.72C1301.37,1137.78 1302.04,1137.85 1302.72,1137.91L1301.73,1137.82L1300.69,1137.72ZM1297.1,1137.43C1296.55,1137.39 1296,1137.35 1295.44,1137.32L1296.5,1137.39L1297.1,1137.43ZM1273.85,1137.14C1273.07,1137.17 1272.28,1137.21 1271.49,1137.25C1271.91,1137.23 1272.33,1137.21 1272.75,1137.19L1273.85,1137.14ZM1291.2,1137.1C1291.72,1137.12 1292.24,1137.14 1292.75,1137.17L1292.27,1137.14L1291.2,1137.1ZM1289.07,1137.02C1289.78,1137.04 1290.49,1137.07 1291.2,1137.1L1290.14,1137.06L1289.07,1137.02ZM1281.36,1136.94C1280.33,1136.95 1279.29,1136.96 1278.25,1136.99L1279.34,1136.97C1280.02,1136.95 1280.69,1136.94 1281.36,1136.94ZM1283.69,1136.93C1284.41,1136.94 1285.13,1136.94 1285.85,1136.95L1284.77,1136.94L1283.69,1136.93ZM1235.55,1101.02C1233.09,1107.24 1230.58,1113.63 1228.02,1120.19C1230.94,1112.69 1233.8,1105.41 1236.6,1098.37L1235.55,1101.02ZM1269.91,1020.22C1269.72,1020.62 1269.53,1021.02 1269.33,1021.42L1269.74,1020.58L1269.91,1020.22ZM1275.29,1009.53C1274.91,1010.26 1274.52,1011.01 1274.13,1011.76L1274.52,1011.01C1274.78,1010.51 1275.03,1010.02 1275.29,1009.53ZM1402.05,1002.64C1377.44,1002.78 1352.83,1002.92 1328.23,1003.04C1352.83,1002.92 1377.44,1002.78 1402.05,1002.64ZM1646.16,1001.25C1621.67,1001.38 1597.18,1001.51 1572.69,1001.65L1602.08,1001.49C1621.67,1001.38 1641.27,1001.27 1660.85,1001.17L1646.16,1001.25ZM1704.92,1000.96L1709.89,1000.94L1704.92,1000.96ZM1751.83,1000.08C1750.89,1000.31 1749.94,1000.54 1748.99,1000.77L1751.83,1000.08C1752.78,999.845 1753.72,999.614 1754.66,999.383L1751.83,1000.08ZM1776.63,993.8C1774.85,994.268 1773.05,994.736 1771.24,995.202L1773.94,994.502C1775.74,994.034 1777.53,993.566 1779.3,993.096L1776.63,993.8ZM1792.37,989.563C1791.51,989.8 1790.65,990.036 1789.79,990.272C1790.65,990.036 1791.51,989.8 1792.37,989.563ZM1850.7,971.436C1834.33,977.241 1816.11,982.925 1796.2,988.497C1816.11,982.925 1834.33,977.241 1850.7,971.436ZM1861.76,967.388C1860.47,967.876 1859.17,968.363 1857.85,968.85C1859.17,968.364 1860.47,967.876 1861.76,967.388ZM1871.53,963.581C1868.4,964.839 1865.19,966.092 1861.89,967.34C1865.19,966.092 1868.4,964.839 1871.53,963.581ZM1881.52,959.406C1879.18,960.423 1876.77,961.437 1874.32,962.446C1876.47,961.563 1878.57,960.677 1880.64,959.787L1881.52,959.406ZM1889.22,955.959C1888.67,956.215 1888.11,956.472 1887.55,956.728C1888.39,956.344 1889.22,955.959 1890.05,955.574L1889.22,955.959ZM1901.33,950.017C1900.94,950.222 1900.54,950.427 1900.15,950.633C1900.55,950.427 1900.94,950.222 1901.33,950.017ZM1906.19,947.411L1905.92,947.556L1906.19,947.411L1906.34,947.329L1906.19,947.411ZM1918.66,939.885L1918.05,940.284C1918.46,940.018 1918.86,939.752 1919.26,939.485L1918.66,939.885ZM1920.62,938.56C1920.36,938.735 1920.11,938.91 1919.85,939.085L1920.44,938.684L1920.62,938.56ZM1930.95,930.59L1930.48,930.999C1930.64,930.858 1930.81,930.718 1930.97,930.577L1930.95,930.59ZM1938.71,922.755L1938.48,923.033L1938.71,922.755ZM1946.62,909.478C1946.57,909.631 1946.51,909.783 1946.45,909.936C1946.51,909.784 1946.57,909.631 1946.62,909.478ZM1947.86,904.907C1947.82,905.124 1947.77,905.341 1947.73,905.557L1947.77,905.341C1947.79,905.268 1947.8,905.196 1947.82,905.124L1947.86,904.907ZM1948.31,901.422C1948.28,901.86 1948.24,902.296 1948.19,902.732L1948.21,902.514C1948.24,902.223 1948.27,901.932 1948.29,901.641L1948.31,901.422ZM1948.59,899.625C1948.58,899.758 1948.56,899.891 1948.55,900.024C1948.57,899.824 1948.6,899.625 1948.62,899.426L1948.59,899.625ZM1948.71,898.034C1948.7,898.233 1948.69,898.432 1948.68,898.63C1948.69,898.498 1948.69,898.365 1948.7,898.233L1948.71,898.034ZM1948.58,895.265C1948.64,895.725 1948.67,896.186 1948.69,896.647L1948.68,896.45C1948.66,895.988 1948.62,895.528 1948.56,895.068L1948.58,895.265ZM1948.04,892.461C1948.06,892.548 1948.09,892.635 1948.11,892.722C1948.09,892.635 1948.06,892.548 1948.04,892.461ZM1943.73,883.793C1944.52,884.88 1945.22,885.972 1945.82,887.067L1945.72,886.874C1945.1,885.779 1944.39,884.688 1943.59,883.602L1943.73,883.793ZM1942.56,882.261C1942.79,882.551 1943.02,882.841 1943.24,883.132C1943.12,882.969 1942.99,882.807 1942.87,882.644L1942.56,882.261ZM1939.5,878.834C1940.17,879.52 1940.81,880.208 1941.41,880.897C1940.81,880.208 1940.17,879.521 1939.5,878.834ZM1936.18,875.714C1937.08,876.499 1937.93,877.287 1938.74,878.076L1938.35,877.697C1937.66,877.035 1936.94,876.373 1936.18,875.714ZM1933.51,873.479C1934.16,874.004 1934.8,874.53 1935.42,875.057L1934.98,874.681C1934.5,874.28 1934.01,873.879 1933.51,873.479ZM1929.11,870.192C1930.48,871.157 1931.78,872.124 1933.02,873.095C1931.78,872.124 1930.48,871.157 1929.11,870.192ZM1914.71,861.4C1917.98,863.169 1921.05,864.947 1923.9,866.736C1921.05,864.947 1917.98,863.169 1914.71,861.4ZM1908.28,858.065C1909.7,858.772 1911.08,859.48 1912.44,860.19C1911.08,859.48 1909.7,858.772 1908.28,858.065ZM1898.34,853.367C1899.94,854.086 1901.51,854.807 1903.04,855.53L1902.27,855.169C1900.72,854.447 1899.15,853.726 1897.54,853.007L1898.34,853.367ZM1876.77,844.444C1877.69,844.798 1878.61,845.153 1879.52,845.507C1878.61,845.153 1877.69,844.798 1876.77,844.444ZM1864.4,839.862C1865.38,840.212 1866.35,840.562 1867.31,840.913L1866.34,840.561C1865.7,840.328 1865.05,840.095 1864.4,839.862ZM1860.43,838.453C1861.56,838.85 1862.68,839.247 1863.79,839.645C1862.35,839.13 1860.9,838.616 1859.43,838.103L1860.43,838.453ZM1779.63,813.675C1783.49,814.742 1787.31,815.811 1791.1,816.882C1787.31,815.811 1783.49,814.742 1779.63,813.675ZM1777.56,813.103C1776.13,812.709 1774.7,812.315 1773.26,811.921L1775.74,812.601L1777.56,813.103ZM1748.9,807.706C1752.27,807.927 1755.53,808.151 1758.67,808.377L1760.76,808.53C1756.98,808.251 1753.03,807.976 1748.9,807.706ZM1738.3,807.04C1739.11,807.088 1739.91,807.136 1740.7,807.185L1738.3,807.04ZM1718.89,805.953C1723.9,806.215 1728.74,806.481 1733.41,806.751C1728.74,806.481 1723.9,806.214 1718.89,805.953ZM1689.78,804.561C1695.72,804.822 1701.48,805.087 1707.06,805.358C1702.41,805.132 1697.64,804.91 1692.74,804.692L1689.78,804.561ZM1661.9,803.424L1662.14,803.433L1661.9,803.424L1660.97,803.389L1661.9,803.424ZM1631.79,802.358C1632.95,802.396 1634.1,802.435 1635.24,802.473C1632.95,802.396 1630.64,802.32 1628.32,802.244L1631.79,802.358ZM1610.55,801.688C1612.58,801.749 1614.6,801.811 1616.61,801.873L1614.15,801.797L1610.55,801.688ZM1549.67,800.062C1554.99,800.188 1560.24,800.316 1565.44,800.446L1557.6,800.252L1549.67,800.062ZM1421.21,797.683C1427.28,797.769 1433.3,797.857 1439.28,797.948L1430.28,797.813L1421.21,797.683ZM1356.04,796.888C1361.01,796.939 1365.96,796.993 1370.88,797.048L1365.52,796.989L1356.04,796.888ZM1270.36,780.701C1271.05,782.104 1271.72,783.474 1272.39,784.81C1271.72,783.474 1271.05,782.104 1270.36,780.701ZM1268.14,776.079C1268.75,777.371 1269.36,778.638 1269.96,779.879C1269.49,778.909 1269.02,777.924 1268.54,776.923L1268.14,776.079ZM1263.04,765.028C1264.08,767.332 1265.1,769.574 1266.11,771.751C1265.1,769.574 1264.07,767.332 1263.04,765.028ZM1255.82,748.576C1256.47,750.091 1257.11,751.586 1257.75,753.06C1257.41,752.264 1257.06,751.462 1256.71,750.653L1255.82,748.576ZM1244.65,721.718C1246.26,725.686 1247.85,729.558 1249.41,733.331C1247.85,729.558 1246.26,725.685 1244.65,721.718ZM1236.73,701.963C1237.93,704.99 1239.12,707.973 1240.29,710.91C1239.12,707.973 1237.93,704.99 1236.73,701.963ZM1333.52,660.514C1314.49,664.578 1295.31,666.131 1276.03,665.592C1295.66,666.141 1315.18,664.521 1334.56,660.29L1333.52,660.514ZM1268.55,665.28C1270.3,665.377 1272.04,665.457 1273.78,665.52C1272.39,665.47 1271,665.409 1269.61,665.337L1268.55,665.28ZM1257.29,664.428C1260.28,664.714 1263.28,664.953 1266.27,665.144C1263.28,664.953 1260.28,664.714 1257.29,664.428ZM1248.74,663.488C1250.41,663.696 1252.08,663.89 1253.75,664.07C1252.08,663.89 1250.41,663.696 1248.74,663.488ZM1235.21,661.505C1239.49,662.225 1243.77,662.858 1248.03,663.399C1243.77,662.858 1239.49,662.225 1235.21,661.505ZM1228.17,660.243C1229.85,660.561 1231.52,660.866 1233.19,661.158C1231.52,660.866 1229.85,660.561 1228.17,660.243ZM1344.93,657.766C1343.94,658.032 1342.95,658.29 1341.96,658.541C1343.3,658.202 1344.64,657.85 1345.97,657.486L1344.93,657.766ZM1350.43,656.217C1351.02,656.045 1351.6,655.871 1352.18,655.694L1351.15,656.006L1350.43,656.217ZM1356.63,643.397C1356.47,644.312 1356.31,645.227 1356.13,646.144C1356.26,645.47 1356.38,644.796 1356.5,644.123L1356.63,643.397ZM1358.98,624.913C1358.88,626.189 1358.76,627.466 1358.64,628.746C1358.76,627.466 1358.88,626.189 1358.98,624.913ZM1359.29,620.375C1359.24,621.197 1359.19,622.021 1359.13,622.844C1359.19,622.02 1359.24,621.197 1359.29,620.375ZM1359.41,600.538C1359.49,602.414 1359.55,604.294 1359.58,606.177L1359.57,605.471C1359.54,604.059 1359.5,602.649 1359.44,601.241L1359.41,600.538ZM1187.63,571.594C1187.53,572.394 1187.42,573.195 1187.33,573.995L1187.48,572.794L1187.63,571.594ZM1355.9,571.18C1355.82,570.758 1355.74,570.336 1355.65,569.915L1355.79,570.603L1355.9,571.18ZM1172.03,534.443C1176.42,545.731 1180.73,556.88 1184.96,567.85C1181.45,558.74 1177.88,549.508 1174.26,540.175L1172.03,534.443ZM1195.55,566.44C1195.3,566.528 1195.05,566.617 1194.8,566.706L1195.55,566.44ZM1200.07,564.894C1199.76,565 1199.44,565.106 1199.12,565.213L1199.32,565.146L1200.07,564.894ZM1353.28,563.907C1352.95,563.769 1352.63,563.633 1352.3,563.497L1352.84,563.724L1353.28,563.907ZM1350.66,562.828C1350.84,562.901 1351.03,562.975 1351.21,563.049L1350.66,562.828C1350.48,562.754 1350.29,562.681 1350.11,562.608L1350.66,562.828ZM1208.27,562.263C1207.78,562.415 1207.28,562.567 1206.79,562.722L1207.53,562.491L1208.27,562.263ZM1342.91,559.925C1343.83,560.245 1344.75,560.573 1345.67,560.908C1344.94,560.641 1344.2,560.378 1343.47,560.12L1342.91,559.925ZM1222.16,558.339C1221.2,558.587 1220.23,558.84 1219.27,559.1L1219.99,558.906C1220.96,558.65 1221.92,558.399 1222.88,558.154L1222.16,558.339ZM1339.54,558.794L1339.76,558.863L1339.54,558.794L1339.3,558.715L1339.54,558.794ZM1331.67,556.444C1332.98,556.801 1334.28,557.173 1335.58,557.559L1335.01,557.39C1333.9,557.064 1332.79,556.749 1331.67,556.444ZM1229.34,556.585C1228.01,556.893 1226.66,557.213 1225.32,557.544C1226.66,557.213 1228.01,556.894 1229.34,556.585ZM1231.48,556.101C1231.24,556.154 1231,556.208 1230.76,556.262C1231,556.208 1231.24,556.154 1231.48,556.101ZM1325.78,554.948C1326.79,555.187 1327.8,555.435 1328.81,555.691C1327.61,555.386 1326.4,555.093 1325.19,554.812L1325.78,554.948ZM1239.24,554.489C1239,554.534 1238.77,554.579 1238.54,554.625L1239.24,554.489C1239.47,554.444 1239.7,554.399 1239.94,554.355L1239.24,554.489ZM1319.31,553.554C1319.93,553.677 1320.55,553.802 1321.18,553.931C1320.36,553.761 1319.54,553.597 1318.71,553.439L1319.31,553.554ZM1247.73,552.998C1246.09,553.257 1244.45,553.533 1242.8,553.828C1244.45,553.533 1246.09,553.257 1247.73,552.998ZM1253.07,552.211C1251.52,552.422 1249.96,552.649 1248.4,552.892C1249.73,552.685 1251.06,552.489 1252.38,552.305L1253.07,552.211ZM1312.14,552.3L1312.58,552.369L1312.14,552.3L1312.02,552.283L1312.14,552.3ZM1309.72,551.945L1309.81,551.958L1309.72,551.945L1309.7,551.942L1309.72,551.945ZM1307.19,551.608C1307.54,551.653 1307.9,551.698 1308.25,551.745C1307.9,551.698 1307.54,551.653 1307.19,551.608ZM1263.87,550.991C1262.28,551.133 1260.68,551.293 1259.08,551.47C1260.46,551.318 1261.83,551.178 1263.2,551.051L1263.87,550.991ZM1305.46,551.398L1305.63,551.419L1305.46,551.398L1304.96,551.341L1305.46,551.398ZM1301.77,551.006L1302.24,551.051L1301.77,551.006L1301.61,550.991L1301.77,551.006ZM1293.05,550.369C1295.35,550.484 1297.64,550.64 1299.91,550.837L1299.3,550.784C1297.43,550.63 1295.56,550.502 1293.68,550.401L1293.05,550.369ZM1277.71,550.189C1274.46,550.272 1271.18,550.432 1267.86,550.669L1268.53,550.623C1271.39,550.427 1274.24,550.288 1277.06,550.206L1277.71,550.189ZM1291.37,550.292C1291.89,550.313 1292.42,550.337 1292.94,550.363C1292.42,550.337 1291.89,550.313 1291.37,550.292ZM1289.89,550.236L1290.25,550.248L1289.89,550.236L1289.74,550.23L1289.89,550.236ZM1287.35,550.165L1287.05,550.159L1287.35,550.165ZM1284.64,550.126C1285.02,550.129 1285.39,550.133 1285.77,550.138C1285.39,550.133 1285.02,550.129 1284.64,550.126ZM1135.7,443.243C1142.23,459.186 1148.61,475.062 1154.86,490.772L1156.03,493.716C1149.41,477.046 1142.63,460.183 1135.7,443.243ZM1114.42,392.313C1115.16,394.049 1115.9,395.786 1116.64,397.523C1115.48,394.787 1114.31,392.052 1113.14,389.318L1114.42,392.313ZM1096.23,350.522C1097.55,353.492 1098.87,356.466 1100.18,359.444L1098.86,356.467C1097.99,354.484 1097.11,352.502 1096.23,350.522ZM1040.43,234.145C1043.06,239.165 1045.67,244.228 1048.27,249.331C1045.67,244.229 1043.06,239.165 1040.43,234.145ZM1035.41,224.615C1035.88,225.513 1036.36,226.413 1036.84,227.313L1036.13,225.97L1035.41,224.615ZM997.875,158.937C1007.39,174.318 1016.76,190.466 1025.99,207.218C1016.76,190.466 1007.39,174.318 997.875,158.937ZM965.08,109.902L965.334,110.251L965.08,109.902L964.859,109.601L965.08,109.902ZM958.093,100.517C960.128,103.195 962.159,105.916 964.184,108.678C962.417,106.269 960.646,103.89 958.871,101.543L958.093,100.517ZM944.785,83.707C946.153,85.363 947.52,87.039 948.884,88.735C947.781,87.364 946.677,86.006 945.571,84.662L944.785,83.707ZM936.1,73.505C936.628,74.107 937.155,74.711 937.683,75.319L936.891,74.41L936.1,73.505ZM925.763,62.169C927.057,63.532 928.349,64.915 929.639,66.316C928.348,64.915 927.056,63.532 925.763,62.169ZM920.281,56.518C920.822,57.063 921.362,57.611 921.902,58.163C921.362,57.612 920.822,57.063 920.281,56.518ZM907.29,44.141C909.176,45.833 911.058,47.567 912.937,49.344L912.131,48.585C910.252,46.821 908.368,45.098 906.482,43.419L907.29,44.141ZM902.434,39.887L902.971,40.348L902.434,39.887L902.297,39.77L902.434,39.887ZM896.75,35.167C897.436,35.72 898.123,36.279 898.808,36.845C898.123,36.28 897.436,35.721 896.75,35.167ZM883.507,25.277C883.019,24.942 882.531,24.609 882.043,24.279L882.863,24.836L883.507,25.277ZM871.631,17.746C872.636,18.329 873.639,18.925 874.643,19.534L873.818,19.036C873.09,18.599 872.361,18.169 871.631,17.746ZM857.26,10.363C861.8,12.391 866.324,14.703 870.832,17.286C866.324,14.703 861.8,12.392 857.26,10.363ZM846.422,6.076C848.512,6.795 850.598,7.575 852.682,8.416L852.265,8.249C850.32,7.472 848.372,6.747 846.422,6.076ZM843.076,4.978C843.216,5.022 843.355,5.066 843.495,5.11L843.076,4.978C842.937,4.935 842.797,4.892 842.658,4.849L843.076,4.978ZM840.042,4.076C839.796,4.007 839.551,3.939 839.306,3.871L839.725,3.987L840.042,4.076ZM836.789,3.208C837.18,3.306 837.572,3.407 837.964,3.51C837.712,3.444 837.46,3.379 837.208,3.314L836.789,3.208ZM829.63,1.66C829.875,1.705 830.12,1.75 830.364,1.796C830.12,1.75 829.875,1.705 829.63,1.66ZM842.535,1795.2C842.258,1795.28 841.98,1795.37 841.703,1795.45L842.119,1795.32L842.535,1795.2ZM895.53,1765.82C894.45,1766.68 893.37,1767.52 892.288,1768.35L893.099,1767.73C894.18,1766.89 895.26,1766.04 896.339,1765.17L895.53,1765.82ZM1027.86,1589.38C1028.11,1588.93 1028.35,1588.48 1028.6,1588.02C1028.11,1588.92 1027.62,1589.81 1027.13,1590.7L1027.86,1589.38ZM1089.65,1464.16C1091.86,1459.26 1094.06,1454.35 1096.25,1449.43C1093.63,1455.33 1090.98,1461.23 1088.32,1467.09L1089.65,1464.16ZM1114.35,1407.86C1117.32,1400.91 1120.26,1393.95 1123.17,1386.99C1119.84,1394.94 1116.48,1402.89 1113.08,1410.84L1114.35,1407.86ZM1156.91,1304.06L1155.75,1306.99L1156.91,1304.06ZM1160.37,1295.31C1161.26,1293.04 1162.15,1290.78 1163.04,1288.52C1161.77,1291.75 1160.5,1294.98 1159.22,1298.23L1160.37,1295.31ZM1356.88,1228.76C1356.92,1228.52 1356.96,1228.28 1357,1228.04C1356.92,1228.52 1356.84,1229 1356.76,1229.49L1356.88,1228.76ZM1357.34,1225.86C1357.27,1226.35 1357.19,1226.83 1357.12,1227.31L1357.23,1226.59L1357.34,1225.86ZM1357.66,1223.7C1357.9,1221.96 1358.12,1220.23 1358.32,1218.5C1358.1,1220.47 1357.84,1222.44 1357.56,1224.42L1357.66,1223.7ZM1359.51,1190.17C1359.47,1188.71 1359.41,1187.26 1359.33,1185.8C1359.42,1187.49 1359.49,1189.18 1359.53,1190.87L1359.51,1190.17ZM1222.81,1144.99C1224.91,1144.45 1227.01,1143.94 1229.1,1143.46C1226.61,1144.03 1224.11,1144.65 1221.59,1145.3L1222.81,1144.99ZM1255.86,1138.66C1255.1,1138.76 1254.33,1138.85 1253.57,1138.96L1254.71,1138.81L1255.86,1138.66ZM1298.27,1137.52C1298.73,1137.55 1299.19,1137.59 1299.64,1137.63L1298.6,1137.54L1298.27,1137.52ZM1276.43,1007.37C1276.43,1007.37 1276.43,1007.37 1276.43,1007.37ZM1884.14,958.26C1884.14,958.26 1884.14,958.26 1884.14,958.26ZM1948.42,900.822C1948.4,900.955 1948.37,901.089 1948.35,901.222L1948.38,901.022L1948.42,900.822ZM1948.71,897.043C1948.72,897.307 1948.72,897.571 1948.71,897.836L1948.71,897.638C1948.72,897.439 1948.71,897.241 1948.71,897.043ZM1906.81,857.339C1906.51,857.191 1906.2,857.044 1905.9,856.896C1906.45,857.165 1907,857.433 1907.55,857.702L1906.81,857.339ZM1856.41,837.052C1855.75,836.823 1855.08,836.595 1854.41,836.368C1855.42,836.712 1856.42,837.057 1857.42,837.402L1856.41,837.052ZM1680.75,804.175C1682.78,804.26 1684.8,804.345 1686.8,804.431L1683.79,804.303L1680.75,804.175ZM1603.27,801.471C1599.1,801.349 1594.88,801.229 1590.62,801.111C1596.13,801.264 1601.57,801.42 1606.92,801.579L1603.27,801.471ZM1457.08,798.229C1486.52,798.712 1514.8,799.262 1541.66,799.876L1533.56,799.694C1506.41,799.092 1477.88,798.555 1448.21,798.086L1457.08,798.229ZM1399.21,797.388C1403.52,797.443 1407.81,797.499 1412.08,797.557L1402.89,797.435L1399.21,797.388ZM1336.92,796.699C1324.11,796.579 1311.16,796.47 1298.09,796.373L1288.27,796.303C1307.96,796.439 1327.39,796.602 1346.51,796.791L1336.92,796.699ZM1267.18,774.047C1267.37,774.443 1267.55,774.836 1267.74,775.228L1267.33,774.369L1267.18,774.047ZM1357,641.222C1356.92,641.705 1356.84,642.189 1356.76,642.672L1356.88,641.947L1357,641.222ZM1358.31,631.838C1357.97,634.716 1357.58,637.602 1357.12,640.498L1357.23,639.774C1357.64,637.121 1358,634.476 1358.31,631.838ZM1359.31,598.631C1359.34,599.032 1359.36,599.433 1359.38,599.834L1359.34,599.132L1359.31,598.631ZM1189.47,568.626C1188.96,568.814 1188.45,569.003 1187.94,569.194L1188.71,568.909L1189.47,568.626ZM1201.57,564.396C1202.12,564.213 1202.68,564.032 1203.23,563.853C1202.43,564.113 1201.63,564.376 1200.82,564.644L1201.57,564.396ZM1210.66,561.539C1210.36,561.63 1210.05,561.721 1209.75,561.813L1210.49,561.591L1210.66,561.539ZM1256.47,551.773C1257.07,551.7 1257.67,551.629 1258.27,551.561C1257.44,551.655 1256.62,551.753 1255.79,551.856L1256.47,551.773ZM1282.88,550.12C1282.88,550.12 1282.88,550.12 1282.88,550.12ZM1162.97,511.29C1163.73,513.233 1164.49,515.173 1165.25,517.11L1162.97,511.29ZM1133.24,437.262L1134.47,440.253L1133.24,437.262ZM1109.29,380.339C1108.42,378.345 1107.56,376.352 1106.7,374.36C1107.99,377.348 1109.29,380.338 1110.57,383.331L1109.29,380.339ZM1093.58,344.588C1093.14,343.6 1092.7,342.613 1092.25,341.626C1093.14,343.6 1094.03,345.576 1094.91,347.554L1093.58,344.588ZM1088.25,332.759C1087.36,330.792 1086.47,328.828 1085.57,326.866C1086.91,329.809 1088.26,332.757 1089.59,335.711L1088.25,332.759ZM1082.88,320.989C1083.33,321.967 1083.78,322.946 1084.23,323.925L1082.88,320.989ZM1039,231.411C1038.75,230.93 1038.5,230.449 1038.24,229.969C1038.74,230.903 1039.23,231.839 1039.72,232.777L1039,231.411ZM1033.96,221.913C1031.78,217.831 1029.59,213.781 1027.39,209.765C1029.83,214.223 1032.27,218.724 1034.69,223.263L1033.96,221.913ZM996.372,156.515C995.87,155.709 995.368,154.906 994.866,154.105C995.62,155.307 996.372,156.513 997.123,157.724L996.372,156.515ZM992.184,149.854C992.576,150.471 992.967,151.089 993.359,151.709L992.604,150.516L992.184,149.854ZM956.534,98.476C955.235,96.782 953.933,95.105 952.63,93.446L951.848,92.453C953.674,94.766 955.496,97.113 957.314,99.494L956.534,98.476ZM943.21,81.812C942.852,81.383 942.493,80.955 942.135,80.53C942.756,81.268 943.377,82.011 943.998,82.757L943.21,81.812ZM878.758,22.111C877.936,21.581 877.113,21.06 876.29,20.547C877.387,21.231 878.484,21.93 879.579,22.645L878.758,22.111ZM855.596,9.633C855.458,9.573 855.319,9.513 855.18,9.454C855.596,9.632 856.013,9.812 856.428,9.995L855.596,9.633ZM844.75,5.514L845.168,5.652L844.75,5.514ZM835.109,2.8C834.969,2.767 834.829,2.734 834.689,2.702C834.969,2.767 835.249,2.832 835.529,2.899L835.109,2.8Z" style="fill:white;"/>
                </g>
                <g transform="matrix(0.956366,0,0,1,-2607.29,0)">
                    <rect x="5528.65" y="0" width="3471.35" height="1800" style="fill:white;"/>
                </g>
            </g>
            <g transform="matrix(0.666667,0,0,1,0,0)">
                <g transform="matrix(-1.07216,-1.31302e-16,1.31302e-16,-1.07216,2275.48,1866.37)">
                    <path d="M1843.14,861.991C1919.51,715.649 2019.84,558.225 2085,594.55L2002.93,900L2085.12,1202.01C2008.1,1241.68 1926.7,1073.93 1846.02,940.204L1843.14,861.991Z" style="fill:rgb(230,230,230);stroke:black;stroke-width:0.93px;"/>
                </g>
                <g>
                    <g transform="matrix(-1.07216,-1.31302e-16,1.31302e-16,-1.07216,2275.48,1866.37)">
                        <path d="M1015.49,587.263C962.586,571.159 910.324,566.408 859.227,582.467C852.418,611.586 852.794,639.703 859.019,667.006C902.177,685.576 953.411,685.346 1014.34,662.549C1017.71,637.373 1019.07,612.251 1015.49,587.263Z" style="fill:rgb(212,213,217);stroke:black;stroke-width:0.93px;"/>
                    </g>
                    <g transform="matrix(-1.07216,-1.31302e-16,1.31302e-16,-1.07216,2275.48,1279.55)">
                        <path d="M1015.49,587.263C962.586,571.159 910.324,566.408 859.227,582.467C852.418,611.586 852.794,639.703 859.019,667.006C902.177,685.576 953.411,685.346 1014.34,662.549C1017.71,637.373 1019.07,612.251 1015.49,587.263Z" style="fill:rgb(212,213,217);stroke:black;stroke-width:0.93px;"/>
                    </g>
                    <g transform="matrix(-1.07216,-1.31302e-16,1.31302e-16,-1.07216,2275.48,1866.37)">
                        <path d="M912.254,826.272C967.484,806.445 1158.47,35.236 1376.86,62.61L1356.89,71.37L1200,589.522L1200,820.447L912.254,826.272Z" style="fill:rgb(230,230,230);stroke:black;stroke-width:0.93px;"/>
                        <g transform="matrix(1,0,0,-1,0,1802.65)">
                            <path d="M912.254,826.272C967.484,806.445 1158.47,35.236 1376.86,62.61L1356.89,71.37L1200,589.522L1200,820.447L912.254,826.272Z" style="fill:rgb(230,230,230);stroke:black;stroke-width:0.93px;"/>
                        </g>
                    </g>
                    <g transform="matrix(-1.07216,-1.31302e-16,1.31302e-16,-1.07216,2275.48,1866.37)">
                        <path d="M305.155,900C298.493,931.855 379.781,959.683 480.078,986.641C665.408,1000.29 1293.53,1004.02 1665.36,987.958C1863.45,974.633 2124.99,924.011 2122.16,900C2130.74,863.83 1827.75,827.526 1670.41,809.394C1277.13,800.631 883.675,805.748 491.055,807.341C377.632,834.844 307.492,865.193 305.155,900Z" style="fill:rgb(230,230,230);stroke:black;stroke-width:0.93px;"/>
                    </g>
                </g>
            </g>
            <g transform="matrix(2.38334,0,0,3.57502,665.292,-1457.02)">
                <g transform="matrix(50,0,0,50,-48.672,681.937)">
                    <path d="M0.233,-0.667L0.393,-0.667L0.646,0L0.436,0L0.414,-0.06L0.212,-0.06L0.19,0L-0.02,0L0.233,-0.667ZM0.358,-0.207L0.313,-0.324L0.268,-0.207L0.358,-0.207ZM0.129,-0.08L0.148,-0.13L0.478,-0.13L0.497,-0.08L0.525,-0.08L0.332,-0.587L0.294,-0.587L0.101,-0.08L0.129,-0.08ZM0.313,-0.563L0.469,-0.154L0.157,-0.154L0.313,-0.563Z" style="fill:rgb(254,73,0);fill-rule:nonzero;"/>
                </g>
                <g transform="matrix(50,0,0,50,-22.372,681.937)">
                    <path d="M-0.02,-0.667L0.206,-0.667L0.283,-0.434L0.36,-0.667L0.506,-0.667L0.583,-0.434L0.66,-0.667L0.886,-0.667L0.666,0L0.5,0L0.433,-0.202L0.366,0L0.2,0L-0.02,-0.667ZM0.3,-0.08L0.433,-0.499L0.566,-0.08L0.591,-0.08L0.758,-0.587L0.731,-0.587L0.579,-0.126L0.433,-0.587L0.287,-0.126L0.135,-0.587L0.108,-0.587L0.275,-0.08L0.3,-0.08Z" style="fill:rgb(254,73,0);fill-rule:nonzero;"/>
                </g>
                <g transform="matrix(50,0,0,50,15.928,681.937)">
                    <path d="M0.233,-0.667L0.393,-0.667L0.646,0L0.436,0L0.414,-0.06L0.212,-0.06L0.19,0L-0.02,0L0.233,-0.667ZM0.358,-0.207L0.313,-0.324L0.268,-0.207L0.358,-0.207ZM0.129,-0.08L0.148,-0.13L0.478,-0.13L0.497,-0.08L0.525,-0.08L0.332,-0.587L0.294,-0.587L0.101,-0.08L0.129,-0.08ZM0.313,-0.563L0.469,-0.154L0.157,-0.154L0.313,-0.563Z" style="fill:rgb(254,73,0);fill-rule:nonzero;"/>
                </g>
                <g transform="matrix(50,0,0,50,40.978,681.937)">
                    <path d="M0.187,-0.287L-0.02,-0.667L0.217,-0.667L0.294,-0.526L0.499,-0.907L0.738,-0.907L0.4,-0.287L0.4,0L0.187,0L0.187,-0.287ZM0.307,-0.08L0.307,-0.319L0.584,-0.827L0.552,-0.827L0.294,-0.35L0.165,-0.587L0.135,-0.587L0.28,-0.319L0.28,-0.08L0.307,-0.08Z" style="fill:rgb(254,73,0);fill-rule:nonzero;"/>
                </g>
            </g>
        </g>
    </g>
</svg>
